<svg version="1.1" xmlns="http://www.w3.org/2000/svg" xmlns:xlink="http://www.w3.org/1999/xlink" width="781" height="561"><defs/><g><g transform="translate(-158,-6) scale(1,1)"><rect fill="#C0C0C0" stroke="none" x="415" y="23" width="195" height="117" opacity="0.2"/></g><g transform="translate(-158,-6) scale(1,1)"><rect fill="#ffffff" stroke="none" x="408" y="16" width="195" height="117"/></g><g transform="translate(-158,-6) scale(1,1)"><path fill="none" stroke="#000000" d="M 408 16 L 603 16 L 603 133 L 408 133 L 408 16 Z Z" stroke-miterlimit="10"/></g><g transform="translate(-158,-6) scale(1,1)"><path fill="none" stroke="#000000" d="M 408 41 L 603 41" stroke-miterlimit="10"/></g><g transform="translate(-158,-6) scale(1,1)"><path fill="none" stroke="#000000" d="M 408 51 L 603 51" stroke-miterlimit="10"/></g><g transform="translate(-158,-6) scale(1,1)"><g><path fill="none" stroke="none"/><text fill="#000000" stroke="none" font-family="Arial" font-size="13px" font-style="normal" font-weight="bold" text-decoration="none" x="467" y="35.5">WebBackend</text></g></g><g transform="translate(-158,-6) scale(1,1)"><g><path fill="none" stroke="none"/><text fill="#000000" stroke="none" font-family="Arial" font-size="13px" font-style="normal" font-weight="normal" text-decoration="none" x="413" y="68.5">+register(username, password)</text></g></g><g transform="translate(-158,-6) scale(1,1)"><g><path fill="none" stroke="none"/><text fill="#000000" stroke="none" font-family="Arial" font-size="13px" font-style="normal" font-weight="normal" text-decoration="none" x="413" y="83.5">+login(username, password)</text></g></g><g transform="translate(-158,-6) scale(1,1)"><g><path fill="none" stroke="none"/><text fill="#000000" stroke="none" font-family="Arial" font-size="13px" font-style="normal" font-weight="normal" text-decoration="none" x="413" y="98.5">+getAllWorkerStats()</text></g></g><g transform="translate(-158,-6) scale(1,1)"><g><path fill="none" stroke="none"/><text fill="#000000" stroke="none" font-family="Arial" font-size="13px" font-style="normal" font-weight="normal" text-decoration="none" x="413" y="113.5">+getStatsFor(worker)</text></g></g><g transform="translate(-158,-6) scale(1,1)"><g><path fill="none" stroke="none"/><text fill="#000000" stroke="none" font-family="Arial" font-size="13px" font-style="normal" font-weight="normal" text-decoration="none" x="413" y="128.5">+saveDetails()</text></g></g><g transform="translate(-158,-6) scale(1,1)"><rect fill="#C0C0C0" stroke="none" x="175" y="447" width="182" height="117" opacity="0.2"/></g><g transform="translate(-158,-6) scale(1,1)"><rect fill="#ffffff" stroke="none" x="168" y="440" width="182" height="117"/></g><g transform="translate(-158,-6) scale(1,1)"><path fill="none" stroke="#000000" d="M 168 440 L 350 440 L 350 557 L 168 557 L 168 440 Z Z" stroke-miterlimit="10"/></g><g transform="translate(-158,-6) scale(1,1)"><path fill="none" stroke="#000000" d="M 168 465 L 350 465" stroke-miterlimit="10"/></g><g transform="translate(-158,-6) scale(1,1)"><path fill="none" stroke="#000000" d="M 168 475 L 350 475" stroke-miterlimit="10"/></g><g transform="translate(-158,-6) scale(1,1)"><g><path fill="none" stroke="none"/><text fill="#000000" stroke="none" font-family="Arial" font-size="13px" font-style="normal" font-weight="bold" text-decoration="none" x="230.5" y="459.5">InputView</text></g></g><g transform="translate(-158,-6) scale(1,1)"><g><path fill="none" stroke="none"/><text fill="#000000" stroke="none" font-family="Arial" font-size="13px" font-style="normal" font-weight="normal" text-decoration="none" x="173" y="492.5">+startTimer()</text></g></g><g transform="translate(-158,-6) scale(1,1)"><g><path fill="none" stroke="none"/><text fill="#000000" stroke="none" font-family="Arial" font-size="13px" font-style="normal" font-weight="normal" text-decoration="none" x="173" y="507.5">+pollGPS()</text></g></g><g transform="translate(-158,-6) scale(1,1)"><g><path fill="none" stroke="none"/><text fill="#000000" stroke="none" font-family="Arial" font-size="13px" font-style="normal" font-weight="normal" text-decoration="none" x="173" y="522.5">+endTimer()</text></g></g><g transform="translate(-158,-6) scale(1,1)"><g><path fill="none" stroke="none"/><text fill="#000000" stroke="none" font-family="Arial" font-size="13px" font-style="normal" font-weight="normal" text-decoration="none" x="173" y="537.5">+inputYield(amount)</text></g></g><g transform="translate(-158,-6) scale(1,1)"><g><path fill="none" stroke="none"/><text fill="#000000" stroke="none" font-family="Arial" font-size="13px" font-style="normal" font-weight="normal" text-decoration="none" x="173" y="552.5">+goToSummary()</text></g></g><g transform="translate(-158,-6) scale(1,1)"><rect fill="#C0C0C0" stroke="none" x="215" y="167" width="134" height="102" opacity="0.2"/></g><g transform="translate(-158,-6) scale(1,1)"><rect fill="#ffffff" stroke="none" x="208" y="160" width="134" height="102"/></g><g transform="translate(-158,-6) scale(1,1)"><path fill="none" stroke="#000000" d="M 208 160 L 342 160 L 342 262 L 208 262 L 208 160 Z Z" stroke-miterlimit="10"/></g><g transform="translate(-158,-6) scale(1,1)"><path fill="none" stroke="#000000" d="M 208 185 L 342 185" stroke-miterlimit="10"/></g><g transform="translate(-158,-6) scale(1,1)"><path fill="none" stroke="#000000" d="M 208 195 L 342 195" stroke-miterlimit="10"/></g><g transform="translate(-158,-6) scale(1,1)"><g><path fill="none" stroke="none"/><text fill="#000000" stroke="none" font-family="Arial" font-size="13px" font-style="normal" font-weight="bold" text-decoration="none" x="234" y="179.5">WelcomeView</text></g></g><g transform="translate(-158,-6) scale(1,1)"><g><path fill="none" stroke="none"/><text fill="#000000" stroke="none" font-family="Arial" font-size="13px" font-style="normal" font-weight="normal" text-decoration="none" x="213" y="212.5">+login()</text></g></g><g transform="translate(-158,-6) scale(1,1)"><g><path fill="none" stroke="none"/><text fill="#000000" stroke="none" font-family="Arial" font-size="13px" font-style="normal" font-weight="normal" text-decoration="none" x="213" y="227.5">+register()</text></g></g><g transform="translate(-158,-6) scale(1,1)"><g><path fill="none" stroke="none"/><text fill="#000000" stroke="none" font-family="Arial" font-size="13px" font-style="normal" font-weight="normal" text-decoration="none" x="213" y="242.5">+alreadySignedIn()</text></g></g><g transform="translate(-158,-6) scale(1,1)"><g><path fill="none" stroke="none"/><text fill="#000000" stroke="none" font-family="Arial" font-size="13px" font-style="normal" font-weight="normal" text-decoration="none" x="213" y="257.5">+skipWelcome()</text></g></g><g transform="translate(-158,-6) scale(1,1)"><rect fill="#C0C0C0" stroke="none" x="535" y="447" width="193" height="102" opacity="0.2"/></g><g transform="translate(-158,-6) scale(1,1)"><rect fill="#ffffff" stroke="none" x="528" y="440" width="193" height="102"/></g><g transform="translate(-158,-6) scale(1,1)"><path fill="none" stroke="#000000" d="M 528 440 L 721 440 L 721 542 L 528 542 L 528 440 Z Z" stroke-miterlimit="10"/></g><g transform="translate(-158,-6) scale(1,1)"><path fill="none" stroke="#000000" d="M 528 465 L 721 465" stroke-miterlimit="10"/></g><g transform="translate(-158,-6) scale(1,1)"><path fill="none" stroke="#000000" d="M 528 475 L 721 475" stroke-miterlimit="10"/></g><g transform="translate(-158,-6) scale(1,1)"><g><path fill="none" stroke="none"/><text fill="#000000" stroke="none" font-family="Arial" font-size="13px" font-style="normal" font-weight="bold" text-decoration="none" x="582.5" y="459.5">SummaryView</text></g></g><g transform="translate(-158,-6) scale(1,1)"><g><path fill="none" stroke="none"/><text fill="#000000" stroke="none" font-family="Arial" font-size="13px" font-style="normal" font-weight="normal" text-decoration="none" x="533" y="492.5">+compareWorkerStats()</text></g></g><g transform="translate(-158,-6) scale(1,1)"><g><path fill="none" stroke="none"/><text fill="#000000" stroke="none" font-family="Arial" font-size="13px" font-style="normal" font-weight="normal" text-decoration="none" x="533" y="507.5">+viewStatsOf(worker)</text></g></g><g transform="translate(-158,-6) scale(1,1)"><g><path fill="none" stroke="none"/><text fill="#000000" stroke="none" font-family="Arial" font-size="13px" font-style="normal" font-weight="normal" text-decoration="none" x="533" y="522.5">+viewPredictions()</text></g></g><g transform="translate(-158,-6) scale(1,1)"><g><path fill="none" stroke="none"/><text fill="#000000" stroke="none" font-family="Arial" font-size="13px" font-style="normal" font-weight="normal" text-decoration="none" x="533" y="537.5">+showHeatMap()</text></g></g><g transform="translate(-158,-6) scale(1,1)"><rect fill="#C0C0C0" stroke="none" x="759" y="191" width="177" height="162" opacity="0.2"/></g><g transform="translate(-158,-6) scale(1,1)"><rect fill="#ffffff" stroke="none" x="752" y="184" width="177" height="162"/></g><g transform="translate(-158,-6) scale(1,1)"><path fill="none" stroke="#000000" d="M 752 184 L 929 184 L 929 346 L 752 346 L 752 184 Z Z" stroke-miterlimit="10"/></g><g transform="translate(-158,-6) scale(1,1)"><path fill="none" stroke="#000000" d="M 752 209 L 929 209" stroke-miterlimit="10"/></g><g transform="translate(-158,-6) scale(1,1)"><path fill="none" stroke="#000000" d="M 752 219 L 929 219" stroke-miterlimit="10"/></g><g transform="translate(-158,-6) scale(1,1)"><g><path fill="none" stroke="none"/><text fill="#000000" stroke="none" font-family="Arial" font-size="13px" font-style="normal" font-weight="bold" text-decoration="none" x="795" y="203.5">AdminWebView</text></g></g><g transform="translate(-158,-6) scale(1,1)"><g><path fill="none" stroke="none"/><text fill="#000000" stroke="none" font-family="Arial" font-size="13px" font-style="normal" font-weight="normal" text-decoration="none" x="757" y="236.5">+showPersonnelLocation()</text></g></g><g transform="translate(-158,-6) scale(1,1)"><g><path fill="none" stroke="none"/><text fill="#000000" stroke="none" font-family="Arial" font-size="13px" font-style="normal" font-weight="normal" text-decoration="none" x="757" y="251.5">+locate(user)</text></g></g><g transform="translate(-158,-6) scale(1,1)"><g><path fill="none" stroke="none"/><text fill="#000000" stroke="none" font-family="Arial" font-size="13px" font-style="normal" font-weight="normal" text-decoration="none" x="757" y="266.5">+createOrchardWith(details)</text></g></g><g transform="translate(-158,-6) scale(1,1)"><g><path fill="none" stroke="none"/><text fill="#000000" stroke="none" font-family="Arial" font-size="13px" font-style="normal" font-weight="normal" text-decoration="none" x="757" y="281.5">+assignWorker(name)</text></g></g><g transform="translate(-158,-6) scale(1,1)"><g><path fill="none" stroke="none"/><text fill="#000000" stroke="none" font-family="Arial" font-size="13px" font-style="normal" font-weight="normal" text-decoration="none" x="757" y="296.5">+findOrchardDetails(name)</text></g></g><g transform="translate(-158,-6) scale(1,1)"><g><path fill="none" stroke="none"/><text fill="#000000" stroke="none" font-family="Arial" font-size="13px" font-style="normal" font-weight="normal" text-decoration="none" x="757" y="311.5">+inputFruit(type)</text></g></g><g transform="translate(-158,-6) scale(1,1)"><g><path fill="none" stroke="none"/><text fill="#000000" stroke="none" font-family="Arial" font-size="13px" font-style="normal" font-weight="normal" text-decoration="none" x="757" y="326.5">+changeOrchardWith(details)</text></g></g><g transform="translate(-158,-6) scale(1,1)"><g><path fill="none" stroke="none"/><text fill="#000000" stroke="none" font-family="Arial" font-size="13px" font-style="normal" font-weight="normal" text-decoration="none" x="757" y="341.5">+showSummary()</text></g></g><g transform="translate(-158,-6) scale(1,1)"><path fill="none" stroke="#000000" d="M 528 472 L 350 472" stroke-miterlimit="10"/></g><g transform="translate(-158,-6) scale(1,1)"><g><path fill="none" stroke="none"/><text fill="#000000" stroke="none" font-family="Arial" font-size="13px" font-style="normal" font-weight="normal" text-decoration="none" x="422.5" y="468.5">+displays</text></g></g><g transform="translate(-158,-6) scale(1,1)"><path fill="none" stroke="#000000" d="M 656 440 L 656 384 L 848 384 L 848 346" stroke-miterlimit="10"/></g><g transform="translate(-158,-6) scale(1,1)"><g><path fill="none" stroke="none"/><text fill="#000000" stroke="none" font-family="Arial" font-size="13px" font-style="normal" font-weight="normal" text-decoration="none" x="710.5" y="379.5">+displays</text></g></g><g transform="translate(-158,-6) scale(1,1)"><path fill="none" stroke="#000000" d="M 224 262 L 224 440" stroke-miterlimit="10"/></g><g transform="translate(-158,-6) scale(1,1)"><g><path fill="none" stroke="none"/><text fill="#000000" stroke="none" font-family="Arial" font-size="13px" font-style="normal" font-weight="normal" text-decoration="none" x="225.5" y="323.5">+displays</text></g></g><g transform="translate(-158,-6) scale(1,1)"><path fill="none" stroke="#000000" d="M 504 133 L 504 179 L 342 179" stroke-miterlimit="10"/></g><g transform="translate(-158,-6) scale(1,1)"><g><path fill="none" stroke="none"/><text fill="#000000" stroke="none" font-family="Arial" font-size="13px" font-style="normal" font-weight="normal" text-decoration="none" x="381.5" y="163.5">+uses</text></g></g><g transform="translate(-158,-6) scale(1,1)"><path fill="none" stroke="#000000" d="M 840 184 L 840 152 L 576 152 L 576 133" stroke-miterlimit="10"/></g><g transform="translate(-158,-6) scale(1,1)"><g><path fill="none" stroke="none"/><text fill="#000000" stroke="none" font-family="Arial" font-size="13px" font-style="normal" font-weight="normal" text-decoration="none" x="701.5" y="148.5">+uses</text></g></g><g transform="translate(-158,-6) scale(1,1)"><path fill="none" stroke="#000000" d="M 592 440 L 592 264 L 544 264 L 544 133" stroke-miterlimit="10"/></g><g transform="translate(-158,-6) scale(1,1)"><g><path fill="none" stroke="none"/><text fill="#000000" stroke="none" font-family="Arial" font-size="13px" font-style="normal" font-weight="normal" text-decoration="none" x="550.5" y="259.5">+uses</text></g></g></g></svg>